<?xml version="1.0" encoding="UTF-8" standalone="no"?>
<!DOCTYPE svg  PUBLIC '-//W3C//DTD SVG 1.1//EN'  'http://www.w3.org/Graphics/SVG/1.1/DTD/svg11.dtd'>
<svg version="1.1" xmlns="http://www.w3.org/2000/svg">
<defs>
<font id="MessinaSans-SemiBold" horiz-adv-x="600">
<font-face font-family="Messina Sans SemiBold" underline-position="-150" ascent="800" x-height="547" font-weight="600" cap-height="750" units-per-em="1000" panose-1="0 0 7 0 0 0 0 0 0 0" underline-thickness="50" unicode-range="U+0020-00FE" descent="-200" bbox="-57 -245 1052 1054"/>
<missing-glyph/>
<glyph glyph-name="space" unicode=" " horiz-adv-x="270"/>
<glyph glyph-name="exclam" unicode="!" d="M199 750v-298l-24 -230h-74l-24 230v298h122zM73 0v134h130v-134h-130z" horiz-adv-x="277"/>
<glyph glyph-name="quotedbl" unicode='&quot;' d="M70 496l-25 292h140l-24 -292h-91zM250 496l-25 292h140l-24 -292h-91z" horiz-adv-x="420"/>
<glyph glyph-name="numbersign" unicode="#" d="M593 464h-148l-24 -156h153v-58h-162l-38 -250h-68l39 250h-127l-38 -250h-68l39 250h-136v58h144l24 156h-149v58h158l34 218h67l-33 -218h126l34 218h67l-33 -218h139v-58zM353 308l24 156h-126l-24 -156h126z" horiz-adv-x="618"/>
<glyph glyph-name="dollar" unicode="$" d="M355 425q106 -24 147 -44q114 -54 114 -173q0 -99 -73 -159t-192 -60q-19 0 -28 1l-9 -126h-44l9 131q-102 18 -163.5 83.5t-65.5 163.5h117q5 -56 36.5 -94t82.5 -53l16 232q-38 9 -64.5 18t-59.5 26t-53.5 38.5t-35 55t-14.5 75.5q0 99 70 158.5t187 61.5l7 99h44 l-7 -101q100 -9 162.5 -64t66.5 -140h-120q-6 43 -36 69.5t-80 33.5l-16 -232h2zM189 551q0 -47 31.5 -73t89.5 -42l15 224q-63 -2 -99.5 -30.5t-36.5 -78.5zM350 86q66 0 108 31.5t42 81.5q0 22 -9 40t-21.5 28.5t-36 20.5t-40.5 15t-48 13l-16 -229q7 -1 21 -1z" horiz-adv-x="669"/>
<glyph glyph-name="percent" unicode="%" d="M19 586q0 80 52 130.5t130 50.5t130.5 -50.5t52.5 -130.5t-52.5 -132t-130.5 -52t-130 52t-52 132zM724 750l-473 -750h-75l473 750h75zM304 586q0 48 -29 78.5t-74 30.5q-46 0 -74 -30.5t-28 -78.5q0 -49 28.5 -80t72.5 -31q45 0 74.5 31t29.5 80zM502 163 q0 80 52 130.5t130 50.5t130.5 -50.5t52.5 -130.5t-52.5 -132t-130.5 -52t-130 52t-52 132zM787 163q0 48 -29 78.5t-74 30.5q-46 0 -74 -30.5t-28 -78.5q0 -49 28.5 -80t72.5 -31q45 0 74.5 31t29.5 80z" horiz-adv-x="878"/>
<glyph glyph-name="ampersand" unicode="&amp;" d="M593 146l144 -146h-134l-72 72q-87 -84 -219 -84q-108 0 -180 61t-72 154q0 135 155 189l-24 25q-70 73 -70 158q0 77 58.5 126.5t146.5 49.5q86 0 139.5 -48.5t53.5 -124.5q0 -68 -43 -121t-116 -76l164 -167q29 46 29 141v19h92v-30q0 -104 -52 -198zM320 667 q-42 0 -69.5 -28t-27.5 -70q0 -47 48 -98l36 -39q51 16 81.5 53t30.5 82q0 43 -28 71.5t-71 28.5zM324 82q46 0 84.5 15.5t58.5 42.5l-197 199q-103 -42 -103 -130q0 -57 43.5 -92t113.5 -35z" horiz-adv-x="762"/>
<glyph glyph-name="quotesingle" unicode="&apos;" d="M70 496l-25 292h140l-24 -292h-91z" horiz-adv-x="230"/>
<glyph glyph-name="parenleft" unicode="(" d="M107 341q0 -144 65 -267t170 -208l-41 -53q-126 81 -201 220.5t-75 307.5t75 307.5t201 220.5l41 -53q-105 -85 -170 -208t-65 -267z" horiz-adv-x="347"/>
<glyph glyph-name="parenright" unicode=")" d="M250 341q0 144 -65 267t-170 208l41 53q126 -81 201 -220.5t75 -307.5t-75 -307.5t-201 -220.5l-41 53q105 85 170 208t65 267z" horiz-adv-x="357"/>
<glyph glyph-name="asterisk" unicode="*" d="M158 678l-108 37l-25 -71l112 -34l-71 -91l62 -44l66 98l64 -98l61 44l-71 90l110 39l-22 64l-111 -33l6 113h-75z" horiz-adv-x="383"/>
<glyph glyph-name="plus" unicode="+" d="M460 328v-73h-172v-182h-75v182h-173v73h173v184h75v-184h172z" horiz-adv-x="500"/>
<glyph glyph-name="comma" unicode="," d="M25 -111q59 12 85 38.5t27 80.5h-63v120h134v-113q0 -157 -170 -186z" horiz-adv-x="233"/>
<glyph glyph-name="hyphen" unicode="-" d="M358 267v108h-308v-108h308z" horiz-adv-x="408"/>
<glyph glyph-name="period" unicode="." d="M35 0v134h130v-134h-130z" horiz-adv-x="200"/>
<glyph glyph-name="slash" unicode="/" d="M92 -92l331 922h-87l-331 -922h87z" horiz-adv-x="448"/>
<glyph glyph-name="zero" unicode="0" d="M298 -12q-125 0 -190.5 96.5t-65.5 282.5q0 187 66 285t192 98q125 0 191.5 -97.5t66.5 -283.5t-66.5 -283.5t-193.5 -97.5zM301 84q70 0 107.5 73t37.5 207q0 137 -39 213t-110 76q-70 0 -106.5 -72t-36.5 -207q0 -139 38 -214.5t109 -75.5z"/>
<glyph glyph-name="one" unicode="1" d="M369 104h186v-104h-485v104h186v489q-73 -54 -186 -69v110q117 20 200 103h99v-633z"/>
<glyph glyph-name="two" unicode="2" d="M571 103v-103h-533v110l181 149q120 98 165 151t45 111q0 56 -37 89t-100 33q-67 0 -107 -39t-44 -108h-112q0 115 74.5 184.5t196.5 69.5q112 0 180 -59t68 -156q0 -47 -15.5 -88.5t-49 -82t-70 -73.5t-93.5 -79l-137 -109h388z"/>
<glyph glyph-name="three" unicode="3" d="M409 379q161 -38 161 -179q0 -95 -72 -153.5t-188 -58.5q-125 0 -202.5 68.5t-77.5 180.5h115q0 -67 44 -108.5t118 -41.5q65 0 104.5 32.5t39.5 84.5q0 55 -44 84t-126 29h-45v100h41q72 0 115 33t43 89q0 51 -36 81t-96 30q-68 0 -107.5 -41t-39.5 -114h-118 q0 118 73 186.5t197 68.5q110 0 177.5 -53t67.5 -140q0 -76 -40.5 -122t-103.5 -56z"/>
<glyph glyph-name="four" unicode="4" d="M580 147h-99v-147h-113v149h-348v94l329 494h132v-487h99v-103zM132 250h236v353z"/>
<glyph glyph-name="five" unicode="5" d="M329 488q103 0 168 -67.5t65 -174.5q0 -114 -73 -186t-189 -72q-118 0 -190 68.5t-73 181.5h110q0 -73 40.5 -114t112.5 -41q70 0 112 42t42 110t-41 110.5t-107 42.5q-71 0 -119 -45h-122l64 394h395v-103h-310l-33 -207q55 61 148 61z"/>
<glyph glyph-name="six" unicode="6" d="M333 489q104 0 171 -69.5t67 -176.5q0 -111 -72.5 -183t-186.5 -72q-132 0 -207.5 101.5t-75.5 284.5q0 91 20 160t50.5 109t72.5 65t79 33.5t77 8.5q100 0 157.5 -53.5t64.5 -153.5h-111q1 52 -31 83.5t-90 31.5q-89 0 -137 -75.5t-48 -218.5q28 63 81 94t119 31z M311 89q65 0 107 41.5t42 105.5t-42 105t-107 41t-107 -41.5t-42 -105.5t42 -105t107 -41z"/>
<glyph glyph-name="seven" unicode="7" d="M570 737v-119l-299 -618h-114l301 625h-428v112h540z"/>
<glyph glyph-name="eight" unicode="8" d="M416 384q69 -16 107.5 -66t38.5 -119q0 -95 -71 -153t-189 -58q-119 0 -191.5 58.5t-72.5 153.5q0 70 39.5 120.5t107.5 62.5q-59 15 -93.5 63.5t-34.5 109.5q0 86 67 140t174 54q108 0 176.5 -54t68.5 -140q0 -61 -35 -110t-92 -62zM299 653q-58 0 -91.5 -27.5 t-33.5 -75.5q0 -54 35 -84t92 -30t91.5 29.5t34.5 83.5q0 48 -34.5 76t-93.5 28zM301 82q63 0 100.5 32.5t37.5 87.5q0 60 -38.5 94t-101.5 34q-62 0 -99.5 -33.5t-37.5 -93.5q0 -56 37.5 -88.5t101.5 -32.5z"/>
<glyph glyph-name="nine" unicode="9" d="M288 750q132 0 207.5 -101t75.5 -282t-75 -280t-211 -99q-104 0 -169 56.5t-75 151.5h111q2 -51 43.5 -83.5t99.5 -32.5q59 0 96.5 40t52 99t14.5 138q-25 -49 -76 -76.5t-116 -27.5q-103 0 -170 68.5t-67 175.5q0 111 72.5 182t186.5 71zM291 355q65 0 104.5 38.5 t39.5 101.5q0 67 -43 110.5t-108 43.5q-64 0 -105.5 -42t-41.5 -106q0 -65 43.5 -105.5t110.5 -40.5z"/>
<glyph glyph-name="colon" unicode=":" d="M55 420v134h130v-134h-130zM55 0v134h130v-134h-130z" horiz-adv-x="240"/>
<glyph glyph-name="semicolon" unicode=";" d="M83 420v134h130v-134h-130zM30 -111q59 12 85 38.5t27 80.5h-63v120h134v-113q0 -157 -170 -186z" horiz-adv-x="263"/>
<glyph glyph-name="less" unicode="&lt;" d="M418 36l-363 213v65l363 214l32 -62l-329 -184l329 -184z" horiz-adv-x="506"/>
<glyph glyph-name="equal" unicode="=" d="M460 339h-420v73h420v-73zM460 171h-420v73h420v-73z" horiz-adv-x="500"/>
<glyph glyph-name="greater" unicode="&gt;" d="M81 36l-32 62l329 184l-329 184l32 62l363 -214v-65z" horiz-adv-x="506"/>
<glyph glyph-name="question" unicode="?" d="M201 219v49q0 24 2.5 44t11 36t13.5 26.5t20 23.5t21 17.5t26 18t25 16.5q74 50 74 112q0 49 -30 78.5t-82 29.5q-55 0 -88.5 -33.5t-38.5 -88.5h-110q10 100 71 157t166 57q109 0 168.5 -52t59.5 -142q0 -35 -9 -62.5t-30 -51t-37.5 -37t-49.5 -37.5q-43 -32 -61.5 -56 t-18.5 -60v-45h-103zM188 0v134h130v-134h-130z" horiz-adv-x="555"/>
<glyph glyph-name="at" unicode="@" d="M465 660q65 0 125.5 -18.5t112.5 -56t83.5 -104t31.5 -152.5q0 -115 -50 -198.5t-135 -83.5q-51 0 -78.5 30.5t-29.5 74.5q-24 -48 -69 -78t-101 -30q-75 0 -119 53t-44 136q0 100 60.5 176.5t159.5 76.5q90 0 126 -71l13 61h103l-63 -276q-4 -20 -4 -32q0 -29 14 -49 t44 -20q38 0 66.5 35.5t41.5 85.5t13 104q0 138 -89 214.5t-218 76.5q-109 0 -198 -57t-136 -145.5t-47 -186.5q0 -140 93.5 -223t222.5 -83q67 0 126 25l13 -43q-69 -31 -151 -31q-69 0 -132 22.5t-113.5 65t-81 111.5t-30.5 154q0 123 60.5 224t161 156.5t218.5 55.5z M381 127q56 0 92 56t36 120q0 46 -22 74t-65 28q-61 0 -96.5 -50t-35.5 -115q0 -50 23 -81.5t68 -31.5z" horiz-adv-x="838"/>
<glyph glyph-name="A" unicode="A" d="M624 0l-68 181h-338l-67 -181h-126l289 750h142l299 -750h-131zM259 292h255l-129 343z" horiz-adv-x="780"/>
<glyph glyph-name="B" unicode="B" d="M496 402q66 -24 102 -75.5t36 -115.5q0 -91 -70.5 -151t-178.5 -60h-305v750h318q89 0 145.5 -50.5t56.5 -128.5q0 -52 -27 -98.5t-77 -70.5zM198 640v-201h166q51 0 82.5 29.5t31.5 74.5q0 44 -29.5 70.5t-79.5 26.5h-171zM374 111q62 0 100.5 33.5t37.5 86.5 q-1 49 -36.5 79.5t-91.5 30.5h-186v-230h176z" horiz-adv-x="674"/>
<glyph glyph-name="C" unicode="C" d="M410 95q85 0 143.5 47t65.5 128h121q-7 -130 -98.5 -209.5t-231.5 -79.5q-165 0 -265 110t-100 287q0 175 101 282t269 107q136 0 222 -70.5t99 -190.5h-121q-7 68 -64.5 109.5t-140.5 41.5q-111 0 -178 -75.5t-67 -200.5q0 -127 66.5 -206.5t178.5 -79.5z" horiz-adv-x="780"/>
<glyph glyph-name="D" unicode="D" d="M324 750q172 0 277 -99.5t105 -260.5q0 -74 -25 -142.5t-73 -124.5t-126.5 -89.5t-176.5 -33.5h-225v750h244zM307 111q122 0 200.5 78.5t78.5 200.5q0 113 -70.5 181.5t-186.5 68.5h-130v-529h108z" horiz-adv-x="751"/>
<glyph glyph-name="E" unicode="E" d="M596 0h-516v750h496v-110h-377v-205h358v-111h-358v-213h397v-111z" horiz-adv-x="631"/>
<glyph glyph-name="F" unicode="F" d="M199 324v-324h-119v750h496v-110h-377v-205h358v-111h-358z" horiz-adv-x="581"/>
<glyph glyph-name="G" unicode="G" d="M389 391h348v-391h-109v89q-80 -108 -229 -108q-163 0 -258.5 107t-95.5 282q0 180 100.5 288.5t269.5 108.5q136 0 222 -70.5t99 -190.5h-120q-8 68 -65.5 109.5t-141.5 41.5q-113 0 -179 -76t-66 -207t66.5 -207t181.5 -76q93 0 152.5 50.5t65.5 139.5h-241v110z" horiz-adv-x="812"/>
<glyph glyph-name="H" unicode="H" d="M694 750v-750h-119v323h-376v-323h-119v750h119v-317h376v317h119z" horiz-adv-x="774"/>
<glyph glyph-name="I" unicode="I" d="M204 750v-750h-119v750h119z" horiz-adv-x="289"/>
<glyph glyph-name="J" unicode="J" d="M465 750v-522q0 -116 -60 -181.5t-166 -65.5q-104 0 -164 61.5t-60 168.5v60h119v-64q0 -53 27.5 -82.5t78.5 -29.5q52 0 79 30.5t27 87.5v537h119z" horiz-adv-x="535"/>
<glyph glyph-name="K" unicode="K" d="M540 0l-246 352l-95 -99v-253h-119v750h119v-345l321 345h159l-296 -306l313 -444h-156z" horiz-adv-x="706"/>
<glyph glyph-name="L" unicode="L" d="M567 111v-111h-487v750h119v-639h368z" horiz-adv-x="587"/>
<glyph glyph-name="M" unicode="M" d="M850 750v-750h-112v585l-219 -585h-112l-218 585v-585h-109v750h162l223 -593l223 593h162z" horiz-adv-x="930"/>
<glyph glyph-name="N" unicode="N" d="M695 750v-750h-134l-364 574v-574h-117v750h147l351 -561v561h117z" horiz-adv-x="775"/>
<glyph glyph-name="O" unicode="O" d="M419 -19q-163 0 -268.5 112t-105.5 283q0 169 104.5 280t267.5 111t267 -111t104 -282q0 -170 -103.5 -281.5t-265.5 -111.5zM419 654q-115 0 -184 -78t-69 -203t68.5 -202t182.5 -77t182 78t68 204q0 125 -67.5 201.5t-180.5 76.5z" horiz-adv-x="833"/>
<glyph glyph-name="P" unicode="P" d="M383 750q109 0 175.5 -60.5t66.5 -158.5q0 -104 -71 -169.5t-184 -65.5h-171v-296h-119v750h303zM374 406q60 0 95.5 31.5t35.5 86.5q0 53 -34 84.5t-92 31.5h-180v-234h175z" horiz-adv-x="650"/>
<glyph glyph-name="Q" unicode="Q" d="M788 374q0 -101 -38.5 -184.5t-108.5 -136.5l111 -188h-123l-81 138q-63 -22 -129 -22q-163 0 -268.5 112t-105.5 283q0 169 104.5 280t267.5 111t267 -111t104 -282zM417 94q33 0 68 8l-129 219h125l99 -168q87 78 87 223q0 125 -67.5 201.5t-180.5 76.5 q-115 0 -184 -78t-69 -203t68.5 -202t182.5 -77z" horiz-adv-x="833"/>
<glyph glyph-name="R" unicode="R" d="M677 0h-142l-198 309h-139v-309h-118v750h291q110 0 178 -59t68 -154q0 -74 -43.5 -130.5t-114.5 -75.5zM366 416q58 0 95 32.5t37 84.5q0 49 -33 78t-88 29h-179v-224h168z" horiz-adv-x="682"/>
<glyph glyph-name="S" unicode="S" d="M618 204q0 -100 -74 -161.5t-195 -61.5q-137 0 -222.5 73.5t-86.5 194.5h119q4 -78 55 -123.5t133 -45.5q67 0 109.5 32.5t42.5 82.5q0 13 -3 24.5t-7 20.5t-13.5 17.5t-16 14t-20.5 12t-22 9.5t-25.5 8t-25.5 7l-28 7t-27 7q-45 11 -69.5 18.5t-64 26t-60.5 39.5 t-37.5 57t-16.5 81q0 102 72.5 162.5t192.5 60.5q121 0 198 -61t78 -160h-122q-3 57 -45 88t-113 31q-67 0 -106 -29.5t-39 -80.5q0 -31 13 -53t40 -36.5t51.5 -22.5t65.5 -17q109 -24 151 -44q118 -55 118 -178z" horiz-adv-x="658"/>
<glyph glyph-name="T" unicode="T" d="M629 750v-110h-254v-640h-119v640h-251v110h624z" horiz-adv-x="634"/>
<glyph glyph-name="U" unicode="U" d="M554 750h117v-467q0 -145 -78 -223.5t-221 -78.5q-144 0 -223 78.5t-79 223.5v467h119v-469q0 -92 49 -140t138 -48q86 0 132 43.5t46 130.5v483z" horiz-adv-x="741"/>
<glyph glyph-name="V" unicode="V" d="M645 750l-254 -750h-118l-258 750h127l188 -605l193 605h122z" horiz-adv-x="660"/>
<glyph glyph-name="W" unicode="W" d="M1001 750l-196 -750h-124l-170 587l-171 -587h-124l-196 750h127l136 -577l168 577h124l168 -579l136 579h122z" horiz-adv-x="1021"/>
<glyph glyph-name="X" unicode="X" d="M683 750l-253 -365l268 -385h-151l-188 281l-188 -281h-146l266 381l-256 369h150l177 -264l176 264h145z" horiz-adv-x="723"/>
<glyph glyph-name="Y" unicode="Y" d="M674 750l-270 -465v-285h-119v285l-270 465h136l195 -361l196 361h132z" horiz-adv-x="689"/>
<glyph glyph-name="Z" unicode="Z" d="M643 111v-111h-598v118l432 522h-418v110h562v-117l-431 -522h453z" horiz-adv-x="678"/>
<glyph glyph-name="bracketleft" unicode="[" d="M65 -162v1005h217v-70h-123v-865h123v-70h-217z" horiz-adv-x="324"/>
<glyph glyph-name="backslash" unicode="\" d="M433 -92l-331 922h-87l331 -922h87z" horiz-adv-x="448"/>
<glyph glyph-name="bracketright" unicode="]" d="M259 -162h-217v70h123v865h-123v70h217v-1005z" horiz-adv-x="324"/>
<glyph glyph-name="asciicircum" unicode="^" d="M480 455h-116l-107 180l-107 -180h-115l170 295h105z" horiz-adv-x="515"/>
<glyph glyph-name="underscore" unicode="_" d="M550 -119h-500v98h500v-98z"/>
<glyph glyph-name="grave" unicode="`" d="M136 651l-136 149l86 65l138 -214h-88z" horiz-adv-x="224"/>
<glyph glyph-name="a" unicode="a" d="M290 557q102 0 156.5 -46.5t54.5 -136.5v-374h-109v82q-59 -94 -179 -94q-83 0 -130.5 46t-47.5 121q0 139 171 163l122 17q36 5 52.5 18.5t16.5 41.5q0 38 -29 58t-79 20q-55 0 -87 -25t-37 -70h-107q8 85 68.5 132t163.5 47zM240 84q65 0 109 40t44 107v40 q-23 -8 -81 -17l-62 -9q-103 -15 -103 -86q0 -36 24 -55.5t69 -19.5z" horiz-adv-x="561"/>
<glyph glyph-name="b" unicode="b" d="M369 557q107 0 171.5 -77t64.5 -206q0 -130 -66.5 -208t-175.5 -78q-66 0 -113 27.5t-70 73.5v-89h-110v762h113v-310q23 50 72 77.5t114 27.5zM337 85q70 0 112 51t42 134t-42 134.5t-112 51.5q-71 0 -114.5 -51.5t-43.5 -134.5t44 -134t114 -51z" horiz-adv-x="640"/>
<glyph glyph-name="c" unicode="c" d="M542 200q-10 -100 -74 -156t-169 -56q-119 0 -191.5 78t-72.5 206t72 206.5t191 78.5q106 0 172.5 -57.5t68.5 -150.5h-110q-5 49 -39 78t-88 29q-70 0 -111.5 -49.5t-41.5 -133.5t41 -133t111 -49q55 0 90 29.5t40 79.5h111z" horiz-adv-x="577"/>
<glyph glyph-name="d" unicode="d" d="M457 762h113v-762h-110v91q-61 -103 -188 -103q-107 0 -172 78t-65 208q0 127 69.5 205t177.5 78q122 0 175 -90v295zM304 89q72 0 114.5 51t42.5 134t-43 134.5t-114 51.5t-113 -51t-42 -134t42 -134.5t113 -51.5z" horiz-adv-x="640"/>
<glyph glyph-name="e" unicode="e" d="M540 288v-47h-399q0 -72 44.5 -115.5t116.5 -43.5q52 0 88.5 24t47.5 66h99q-16 -82 -82.5 -133t-158.5 -51q-117 0 -189 78.5t-72 205.5q0 128 72.5 206.5t189.5 78.5q111 0 177 -72.5t66 -196.5zM432 324q0 63 -37 101t-100 38q-64 0 -105.5 -37.5t-46.5 -101.5h289z " horiz-adv-x="575"/>
<glyph glyph-name="f" unicode="f" d="M322 665h-52q-36 0 -51.5 -16t-15.5 -52v-50h105v-99h-105v-448h-113v448h-85v99h85v42q0 96 36.5 134.5t125.5 38.5h70v-97z" horiz-adv-x="327"/>
<glyph glyph-name="g" unicode="g" d="M452 547h107v-514q0 -120 -67.5 -185.5t-191.5 -65.5q-111 0 -179 51.5t-80 144.5h111q9 -52 47.5 -79t100.5 -27q152 0 152 146v99q-47 -93 -178 -93q-111 0 -175 72t-64 194t64.5 194.5t174.5 72.5q63 0 109.5 -24t68.5 -69v83zM299 120q69 0 108.5 46.5t39.5 124.5 q0 79 -40 124.5t-108 45.5q-69 0 -109.5 -46.5t-40.5 -123.5t40.5 -124t109.5 -47z" horiz-adv-x="624"/>
<glyph glyph-name="h" unicode="h" d="M356 557q92 0 141.5 -51t49.5 -151v-355h-113v343q0 53 -30 83.5t-83 30.5q-64 0 -101 -44t-37 -119v-294h-113v762h113v-292q53 87 173 87z" horiz-adv-x="612"/>
<glyph glyph-name="i" unicode="i" d="M65 773v-131h121v131h-121zM69 0v547h113v-547h-113z" horiz-adv-x="251"/>
<glyph glyph-name="j" unicode="j" d="M85 773v-131h121v131h-121zM89 547h113v-579q0 -96 -36.5 -135t-125.5 -39h-55v97h38q36 0 51 17t15 54v585z" horiz-adv-x="266"/>
<glyph glyph-name="k" unicode="k" d="M424 0l-163 229l-78 -86v-143h-113v762h113v-468l222 253h145l-212 -233l225 -314h-139z" horiz-adv-x="578"/>
<glyph glyph-name="l" unicode="l" d="M183 762v-762h-113v762h113z" horiz-adv-x="253"/>
<glyph glyph-name="m" unicode="m" d="M662 557q88 0 138 -48t50 -134v-375h-113v348q0 112 -101 112q-58 0 -88.5 -38.5t-30.5 -110.5v-311h-114v348q0 54 -26.5 83t-75.5 29q-57 0 -87.5 -38.5t-30.5 -109.5v-312h-113v547h112v-92q41 102 152 102q127 0 158 -111q44 111 170 111z" horiz-adv-x="915"/>
<glyph glyph-name="n" unicode="n" d="M356 557q92 0 141.5 -51.5t49.5 -151.5v-354h-113v342q0 53 -30 84t-83 31q-64 0 -101 -44.5t-37 -119.5v-293h-113v547h113v-82q54 92 173 92z" horiz-adv-x="612"/>
<glyph glyph-name="o" unicode="o" d="M299 557q120 0 192.5 -78.5t72.5 -206.5q0 -129 -72.5 -206.5t-192.5 -77.5t-192 78t-72 206t72.5 206.5t191.5 78.5zM298 454q-69 0 -109 -49.5t-40 -132.5t40.5 -132t111.5 -49q69 0 109 49t40 132t-40.5 132.5t-111.5 49.5z" horiz-adv-x="599"/>
<glyph glyph-name="p" unicode="p" d="M371 557q106 0 170 -75.5t64 -200.5q0 -129 -68.5 -207t-178.5 -78q-121 0 -175 86v-288h-113v753h110v-99q56 109 191 109zM335 94q70 0 113 49.5t43 131.5t-42.5 131.5t-112.5 49.5q-71 0 -114 -49.5t-43 -131.5t42.5 -131.5t113.5 -49.5z" horiz-adv-x="640"/>
<glyph glyph-name="q" unicode="q" d="M460 547h110v-753h-113v300q-24 -47 -72 -72.5t-108 -25.5q-110 0 -176 77t-66 206q0 127 65.5 202.5t174.5 75.5q129 0 185 -102v92zM305 99q71 0 113.5 49t42.5 131t-43 131.5t-114 49.5t-113 -49.5t-42 -131.5t42 -131t114 -49z" horiz-adv-x="635"/>
<glyph glyph-name="r" unicode="r" d="M365 552v-109h-21q-161 0 -161 -171v-272h-113v547h112v-87q41 92 152 92h31z" horiz-adv-x="370"/>
<glyph glyph-name="s" unicode="s" d="M287 316q108 -17 146 -35q70 -34 70 -115t-62.5 -129.5t-168.5 -48.5q-107 0 -172 49t-70 136h114q11 -96 135 -96q54 0 83.5 20t29.5 55q0 31 -25 43.5t-91 24.5q-108 19 -146 36q-82 38 -82 128q0 80 58 126.5t158 46.5t159 -47.5t66 -131.5h-109q-5 43 -34 66t-80 23 q-50 0 -80 -21.5t-30 -56.5q0 -19 8 -31t28 -20t39.5 -12.5t55.5 -9.5z" horiz-adv-x="533"/>
<glyph glyph-name="t" unicode="t" d="M338 97v-97h-77q-89 0 -125.5 38.5t-36.5 134.5v275h-104v99h104v131l113 31v-162h113v-99h-113v-281q0 -70 71 -70h55z" horiz-adv-x="353"/>
<glyph glyph-name="u" unicode="u" d="M432 547h113v-547h-110v92q-58 -98 -176 -98q-90 0 -142 56.5t-52 153.5v343h113v-333q0 -59 28 -91t81 -32q68 0 106.5 51t38.5 140v265z" horiz-adv-x="615"/>
<glyph glyph-name="v" unicode="v" d="M537 547l-202 -547h-129l-201 547h119l148 -434l149 434h116z" horiz-adv-x="542"/>
<glyph glyph-name="w" unicode="w" d="M852 547l-182 -547h-114l-125 395l-125 -395h-114l-182 547h120l122 -412l124 412h115l125 -412l121 412h115z" horiz-adv-x="862"/>
<glyph glyph-name="x" unicode="x" d="M434 0l-137 195l-138 -195h-141l207 271l-210 276h145l135 -191l133 191h140l-202 -266l214 -281h-146z" horiz-adv-x="595"/>
<glyph glyph-name="y" unicode="y" d="M410 547h115l-242 -635q-33 -88 -149 -88h-74v97h55q36 0 54.5 12t30.5 45l14 39l-209 530h119l144 -396z" horiz-adv-x="530"/>
<glyph glyph-name="z" unicode="z" d="M491 95v-95h-456v103l319 349h-314v95h452v-103l-321 -349h320z" horiz-adv-x="537"/>
<glyph glyph-name="braceleft" unicode="{" d="M225 463q0 -62 -26 -90.5t-81 -42.5q55 -14 81 -42.5t26 -90.5v-246q0 -55 17 -72t61 -17h35v-68h-78q-21 0 -35.5 1.5t-34 10t-32 23.5t-21 44t-8.5 69v239q0 57 -29 79.5t-85 30.5v78q56 8 85 30.5t29 79.5v239q0 40 8.5 69t21 44t32 23.5t34 10t35.5 1.5h78v-68h-35 q-44 0 -61 -17t-17 -72v-246z" horiz-adv-x="363"/>
<glyph glyph-name="bar" unicode="|" d="M144 870v-990h-79v990h79z" horiz-adv-x="209"/>
<glyph glyph-name="braceright" unicode="}" d="M128 463v246q0 55 -17 72t-61 17h-35v68h78q21 0 35.5 -1.5t34 -10t32 -23.5t21 -44t8.5 -69v-239q0 -57 29 -79.5t85 -30.5v-78q-56 -8 -85 -30.5t-29 -79.5v-239q0 -40 -8.5 -69t-21 -44t-32 -23.5t-34 -10t-35.5 -1.5h-78v68h35q44 0 61 17t17 72v246q0 62 26 90.5 t81 42.5q-55 14 -81 42.5t-26 90.5z" horiz-adv-x="363"/>
<glyph glyph-name="asciitilde" unicode="~" d="M499 456q0 -93 -36.5 -144.5t-101.5 -51.5q-37 0 -71.5 20t-60.5 39.5t-41 19.5q-51 0 -51 -70h-100q0 81 39.5 131.5t100.5 50.5q34 0 68.5 -19.5t62.5 -39t45 -19.5q43 0 43 83h103z" horiz-adv-x="537"/>
<glyph glyph-name="exclamdown" unicode="¡" d="M73 517h130v-134h-130v134zM199 -233h-122v298l24 230h74l24 -230v-298z" horiz-adv-x="277"/>
<glyph glyph-name="cent" unicode="¢" d="M493 192h102q-13 -95 -74 -148t-157 -53h-11l-8 -117h-44l8 122q-99 17 -156 91.5t-57 190.5q0 126 68 202t183 80l6 83h44l-6 -85q88 -9 142.5 -63t58.5 -137h-102q-5 46 -32.5 75.5t-72.5 36.5l-26 -390h5q52 0 86 29.5t43 82.5zM195 278q0 -76 31.5 -126t88.5 -66 l26 385q-68 -6 -107 -57.5t-39 -135.5z" horiz-adv-x="683"/>
<glyph glyph-name="sterling" unicode="£" d="M651 203q-1 -105 -45 -160t-127 -55q-41 0 -79 17t-92 62q-19 -24 -32.5 -37.5t-42 -27.5t-63.5 -14q-58 0 -93 33t-35 90q0 55 32.5 89t83.5 34q48 0 97 -37q8 35 8 111v92h-94v50h94v127q0 80 48 126.5t129 46.5q77 0 120 -43t44 -119h-92q-1 31 -19 48.5t-49 17.5 q-34 0 -53.5 -20.5t-19.5 -54.5v-129h152v-50h-152v-71q0 -75 -5.5 -111.5t-21.5 -74.5q67 -57 119 -57q43 0 63 28t20 89h105zM166 53q26 0 46.5 21t27.5 52q-37 34 -75 34q-26 0 -40 -15t-14 -39q0 -25 15 -39t40 -14z" horiz-adv-x="692"/>
<glyph glyph-name="currency" unicode="¤" d="M537 302q0 -88 -57 -148l95 -118l-47 -36l-94 116q-51 -31 -114 -31q-61 0 -114 32l-94 -117l-47 36l96 119q-57 60 -57 147t60 150l-99 122l47 36l98 -122q51 30 110 30q58 0 110 -29l98 121l47 -36l-98 -121q60 -63 60 -151zM321 158q57 0 96.5 42t39.5 102 q0 59 -40 100.5t-96 41.5t-96 -41.5t-40 -100.5q0 -60 39.5 -102t96.5 -42z" horiz-adv-x="640"/>
<glyph glyph-name="yen" unicode="¥" d="M408 373v-22h164v-45h-164v-95h164v-45h-164v-166h-102v166h-163v45h163v95h-163v45h163v22l-228 377h123l160 -286l160 286h115z" horiz-adv-x="713"/>
<glyph glyph-name="brokenbar" unicode="¦" d="M144 870v-417h-79v417h79zM144 297v-417h-79v417h79z" horiz-adv-x="209"/>
<glyph glyph-name="section" unicode="§" d="M396 257q89 -25 89 -112q0 -77 -58.5 -123t-158.5 -46q-102 0 -165 49t-68 135h111q5 -48 38.5 -73.5t88.5 -25.5q49 0 78 19.5t29 54.5t-29 51t-84 26q-32 5 -52 9.5t-54 16.5t-54 27t-36 40.5t-16 58.5q0 42 22.5 71t61.5 39q-35 15 -55 49t-20 77q0 74 58 118t155 44 t153.5 -44t59.5 -121h-103q-10 83 -110 83q-51 0 -80 -20t-29 -57q0 -20 8.5 -33.5t29 -21.5t38 -12t51.5 -9q47 -7 79.5 -16t63 -25t46 -42t15.5 -63q0 -96 -103 -124zM148 377q0 -81 141 -78q117 3 117 71q0 86 -150 81q-108 -4 -108 -74z" horiz-adv-x="534"/>
<glyph glyph-name="dieresis" unicode="¨" d="M103 651v115h-103v-115h103zM302 651v115h-103v-115h103z" horiz-adv-x="302"/>
<glyph glyph-name="copyright" unicode="©" d="M430 762q164 0 274 -109t110 -278t-110 -278t-274 -109t-274.5 109t-110.5 278t110.5 278t274.5 109zM430 33q142 0 238 96t96 246t-96 246t-238 96t-238.5 -96t-96.5 -246q0 -151 96.5 -246.5t238.5 -95.5zM435 228q42 0 73 24.5t33 66.5h85q0 -82 -53 -128t-138 -46 q-95 0 -154.5 59t-59.5 177q0 117 61 173.5t154 56.5q82 0 134.5 -44.5t52.5 -122.5h-86q-4 39 -32.5 61.5t-68.5 22.5q-51 0 -88 -36t-37 -111q0 -77 36 -115t88 -38z" horiz-adv-x="859"/>
<glyph glyph-name="ordfeminine" unicode="ª" d="M237 750q74 0 116.5 -34.5t42.5 -104.5v-270h-91v54q-42 -62 -125 -62q-53 0 -91.5 31.5t-38.5 91.5q0 104 128 119l89 11q44 6 44 37q0 24 -21 39.5t-53 15.5q-31 0 -52.5 -15.5t-26.5 -41.5h-91q7 64 52.5 96.5t117.5 32.5zM305 531q-4 -2 -50 -9l-44 -5 q-34 -4 -50.5 -19.5t-16.5 -36.5q0 -23 16.5 -37t42.5 -14q39 0 70.5 28.5t31.5 71.5v21z" horiz-adv-x="446"/>
<glyph glyph-name="guillemotleft" unicode="«" d="M290 463l-144 -159l144 -159l-67 -62l-195 221l195 221zM550 463l-144 -159l144 -159l-67 -62l-195 221l195 221z" horiz-adv-x="572"/>
<glyph glyph-name="logicalnot" unicode="¬" d="M445 112h-61v150h-359v69h420v-219z" horiz-adv-x="470"/>
<glyph glyph-name="registered" unicode="®" d="M255 762q98 0 163.5 -65t65.5 -166t-65.5 -166t-163.5 -65t-164 65t-66 166t66 166t164 65zM255 331q83 0 139 56t56 144q0 87 -56 143.5t-139 56.5t-139.5 -56.5t-56.5 -143.5q0 -88 56.5 -144t139.5 -56zM356 575q0 -54 -48 -73l55 -87h-50l-52 80h-44v-80h-44v242h95 q43 0 65.5 -24t22.5 -58zM217 615v-79h53q20 0 31 11t11 28q0 18 -11 29t-31 11h-53z" horiz-adv-x="509"/>
<glyph glyph-name="macron" unicode="¯" d="M305 651h-305v78h305v-78z" horiz-adv-x="305"/>
<glyph glyph-name="degree" unicode="°" d="M25 632q0 80 52 130.5t130 50.5t130.5 -50.5t52.5 -130.5t-52.5 -132t-130.5 -52t-130 52t-52 132zM310 632q0 48 -29 78.5t-74 30.5q-46 0 -74 -30.5t-28 -78.5q0 -49 28.5 -80t72.5 -31q45 0 74.5 31t29.5 80z" horiz-adv-x="415"/>
<glyph glyph-name="plusminus" unicode="±" d="M288 521h172v-73h-172v-182h-75v182h-173v73h173v184h75v-184zM40 121v73h420v-73h-420z" horiz-adv-x="500"/>
<glyph glyph-name="acute" unicode="´" d="M91 651h-91l142 222l89 -68z" horiz-adv-x="231"/>
<glyph glyph-name="paragraph" unicode="¶" d="M449 750v-890h-63v436h-106q-113 0 -184 65.5t-71 169.5q0 98 66.5 158.5t175.5 60.5h182zM511 750h63v-890h-63v890zM276 406h110v234h-115q-58 0 -92 -31.5t-34 -84.5q0 -55 35.5 -86.5t95.5 -31.5z" horiz-adv-x="639"/>
<glyph glyph-name="periodcentered" unicode="·" d="M35 294v120h116v-120h-116z" horiz-adv-x="186"/>
<glyph glyph-name="cedilla" unicode="¸" d="M111 -44q49 -2 79.5 -24t30.5 -59q0 -39 -30 -65t-77 -26q-68 0 -114 40l32 49q40 -32 77 -32q22 0 35 10t13 27q0 19 -25 33.5t-73 14.5l13 82h39v-50z" horiz-adv-x="221"/>
<glyph glyph-name="ordmasculine" unicode="º" d="M246 750q85 0 140.5 -57t55.5 -153q0 -95 -55.5 -152t-140.5 -57t-140.5 57t-55.5 152q0 96 55.5 153t140.5 57zM245 662q-45 0 -74.5 -34t-29.5 -91q0 -54 31.5 -86t74.5 -32q45 0 74.5 33.5t29.5 90.5q0 55 -31.5 87t-74.5 32z" horiz-adv-x="492"/>
<glyph glyph-name="guillemotright" unicode="»" d="M22 463l67 62l195 -221l-195 -221l-67 62l144 159zM282 463l67 62l195 -221l-195 -221l-67 62l144 159z" horiz-adv-x="572"/>
<glyph glyph-name="onequarter" unicode="¼" d="M817 750l-473 -750h-75l473 750h75zM284 370h103v-75h-287v75h103v261q-48 -29 -109 -35v79q72 9 121 61h69v-366zM949 80h-61v-80h-80v82h-207v64l199 295h88v-285h61v-76zM688 156h120v175z" horiz-adv-x="1021"/>
<glyph glyph-name="onehalf" unicode="½" d="M783 750l-473 -750h-75l473 750h75zM250 370h103v-75h-287v75h103v261q-48 -29 -109 -35v79q72 9 121 61h69v-366zM962 76v-76h-327v76l109 88q68 54 94 85t26 63q0 31 -20 47.5t-53 16.5q-36 0 -58 -20.5t-23 -59.5h-81q0 75 48 116.5t119 41.5q65 0 109 -35.5t44 -97.5 q0 -54 -33.5 -97t-103.5 -98l-64 -50h214z" horiz-adv-x="1031"/>
<glyph glyph-name="threequarters" unicode="¾" d="M281 525q83 -29 83 -103q0 -64 -46 -99t-113 -35q-72 0 -122 40.5t-50 114.5h83q0 -82 87 -82q33 0 55 16t22 46q0 59 -92 59h-34v72h31q40 0 63 18t23 48q0 27 -20 42t-52 15q-35 0 -56.5 -21.5t-21.5 -63.5h-83q0 77 47.5 117.5t116.5 40.5q66 0 109.5 -31.5 t43.5 -88.5q0 -40 -21 -67.5t-53 -37.5zM816 750l-473 -750h-75l473 750h75zM950 80h-61v-80h-80v82h-207v64l199 295h88v-285h61v-76zM689 156h120v175z" horiz-adv-x="1022"/>
<glyph glyph-name="questiondown" unicode="¿" d="M357 517v-134h-130v134h130zM344 298v-49q0 -24 -2.5 -44t-11 -36t-13.5 -26.5t-20 -23.5t-21 -17.5t-26 -18t-25 -16.5q-74 -50 -74 -112q0 -49 30 -78.5t82 -29.5q55 0 88.5 33.5t38.5 88.5h110q-10 -100 -71 -157t-166 -57q-109 0 -168.5 52t-59.5 142q0 35 9 62.5 t30 51t37.5 37t49.5 37.5q43 32 61.5 56t18.5 60v45h103z" horiz-adv-x="525"/>
<glyph glyph-name="Agrave" unicode="À" d="M350 832l-136 149l86 65l138 -214h-88zM624 0l-68 181h-338l-67 -181h-126l289 750h142l299 -750h-131zM259 292h255l-129 343z" horiz-adv-x="780"/>
<glyph glyph-name="Aacute" unicode="Á" d="M438 830h-91l142 222l89 -68zM624 0l-68 181h-338l-67 -181h-126l289 750h142l299 -750h-131zM259 292h255l-129 343z" horiz-adv-x="780"/>
<glyph glyph-name="Acircumflex" unicode="Â" d="M461 832l-71 88l-70 -88h-102l141 178h63l141 -178h-102zM624 0l-68 181h-338l-67 -181h-126l289 750h142l299 -750h-131zM259 292h255l-129 343z" horiz-adv-x="780"/>
<glyph glyph-name="Atilde" unicode="Ã" d="M558 974q-3 -65 -30 -103.5t-70 -38.5q-31 0 -74 31.5t-61 31.5q-35 0 -38 -57h-63q2 64 29.5 102t70.5 38q31 0 74.5 -32t60.5 -32q30 0 36 60h65zM624 0l-68 181h-338l-67 -181h-126l289 750h142l299 -750h-131zM259 292h255l-129 343z" horiz-adv-x="780"/>
<glyph glyph-name="Adieresis" unicode="Ä" d="M337 832v115h-103v-115h103zM546 832v115h-103v-115h103zM624 0l-68 181h-338l-67 -181h-126l289 750h142l299 -750h-131zM259 292h255l-129 343z" horiz-adv-x="780"/>
<glyph glyph-name="Aring" unicode="Å" d="M280 943q0 49 31 80t78 31q49 0 80.5 -31t31.5 -80t-31.5 -80t-80.5 -31q-47 0 -78 31.5t-31 79.5zM445 943q0 25 -15 41t-40 16t-39.5 -16t-14.5 -41t14.5 -41.5t39.5 -16.5t40 16.5t15 41.5zM624 0l-68 181h-338l-67 -181h-126l289 750h142l299 -750h-131zM259 292h255 l-129 343z" horiz-adv-x="780"/>
<glyph glyph-name="AE" unicode="Æ" d="M655 111h397v-111h-516v190h-278l-97 -190h-136l391 750h616v-110h-377v-205h358v-111h-358v-213zM314 301h222v319h-59z" horiz-adv-x="1087"/>
<glyph glyph-name="Ccedilla" unicode="Ç" d="M740 270q-7 -129 -97.5 -208t-228.5 -81v-25q49 -2 79.5 -24t30.5 -59q0 -39 -30 -65t-77 -26q-68 0 -114 40l32 49q40 -32 77 -32q22 0 35 10t13 27q0 19 -25 33.5t-73 14.5l9 59q-149 13 -237.5 121t-88.5 274q0 175 101 282t269 107q136 0 222 -70.5t99 -190.5h-121 q-7 68 -64.5 109.5t-140.5 41.5q-111 0 -178 -75.5t-67 -200.5q0 -127 66.5 -206.5t178.5 -79.5q85 0 143.5 47t65.5 128h121z" horiz-adv-x="780"/>
<glyph glyph-name="Egrave" unicode="È" d="M320 832l-136 149l86 65l138 -214h-88zM596 0h-516v750h496v-110h-377v-205h358v-111h-358v-213h397v-111z" horiz-adv-x="631"/>
<glyph glyph-name="Eacute" unicode="É" d="M360 830h-91l142 222l89 -68zM596 0h-516v750h496v-110h-377v-205h358v-111h-358v-213h397v-111z" horiz-adv-x="631"/>
<glyph glyph-name="Ecircumflex" unicode="Ê" d="M408 832l-71 88l-70 -88h-102l141 178h63l141 -178h-102zM596 0h-516v750h496v-110h-377v-205h358v-111h-358v-213h397v-111z" horiz-adv-x="631"/>
<glyph glyph-name="Edieresis" unicode="Ë" d="M285 832v115h-103v-115h103zM494 832v115h-103v-115h103zM596 0h-516v750h496v-110h-377v-205h358v-111h-358v-213h397v-111z" horiz-adv-x="631"/>
<glyph glyph-name="Igrave" unicode="Ì" d="M99 832l-136 149l86 65l138 -214h-88zM204 750v-750h-119v750h119z" horiz-adv-x="289"/>
<glyph glyph-name="Iacute" unicode="Í" d="M198 832h-88l138 214l86 -65zM204 750v-750h-119v750h119z" horiz-adv-x="289"/>
<glyph glyph-name="Icircumflex" unicode="Î" d="M215 832l-71 88l-70 -88h-102l141 178h63l141 -178h-102zM204 750v-750h-119v750h119z" horiz-adv-x="289"/>
<glyph glyph-name="Idieresis" unicode="Ï" d="M91 832v115h-103v-115h103zM300 832v115h-103v-115h103zM203 750v-750h-119v750h119z" horiz-adv-x="289"/>
<glyph glyph-name="Eth" unicode="Ð" d="M324 750q172 0 277 -99.5t105 -260.5q0 -74 -25 -142.5t-73 -124.5t-126.5 -89.5t-176.5 -33.5h-225v353h-90v57h90v340h244zM307 111q122 0 200.5 78.5t78.5 200.5q0 113 -70.5 181.5t-186.5 68.5h-130v-230h170v-57h-170v-242h108z" horiz-adv-x="751"/>
<glyph glyph-name="Ntilde" unicode="Ñ" d="M582 974q-3 -65 -30 -103.5t-70 -38.5q-31 0 -74 31.5t-61 31.5q-35 0 -38 -57h-63q2 64 29.5 102t70.5 38q31 0 74.5 -32t60.5 -32q30 0 36 60h65zM695 750v-750h-134l-364 574v-574h-117v750h147l351 -561v561h117z" horiz-adv-x="775"/>
<glyph glyph-name="Ograve" unicode="Ò" d="M403 832l-136 149l86 65l138 -214h-88zM419 -19q-163 0 -268.5 112t-105.5 283q0 169 104.5 280t267.5 111t267 -111t104 -282q0 -170 -103.5 -281.5t-265.5 -111.5zM419 654q-115 0 -184 -78t-69 -203t68.5 -202t182.5 -77t182 78t68 204q0 125 -67.5 201.5t-180.5 76.5 z" horiz-adv-x="833"/>
<glyph glyph-name="Oacute" unicode="Ó" d="M477 832h-88l138 214l86 -65zM419 -19q-163 0 -268.5 112t-105.5 283q0 169 104.5 280t267.5 111t267 -111t104 -282q0 -170 -103.5 -281.5t-265.5 -111.5zM419 654q-115 0 -184 -78t-69 -203t68.5 -202t182.5 -77t182 78t68 204q0 125 -67.5 201.5t-180.5 76.5z" horiz-adv-x="833"/>
<glyph glyph-name="Ocircumflex" unicode="Ô" d="M487 832l-71 88l-70 -88h-102l141 178h63l141 -178h-102zM419 -19q-163 0 -268.5 112t-105.5 283q0 169 104.5 280t267.5 111t267 -111t104 -282q0 -170 -103.5 -281.5t-265.5 -111.5zM419 654q-115 0 -184 -78t-69 -203t68.5 -202t182.5 -77t182 78t68 204 q0 125 -67.5 201.5t-180.5 76.5z" horiz-adv-x="833"/>
<glyph glyph-name="Otilde" unicode="Õ" d="M595 974q-3 -65 -30 -103.5t-70 -38.5q-31 0 -74 31.5t-61 31.5q-35 0 -38 -57h-63q2 64 29.5 102t70.5 38q31 0 74.5 -32t60.5 -32q30 0 36 60h65zM419 -19q-163 0 -268.5 112t-105.5 283q0 169 104.5 280t267.5 111t267 -111t104 -282q0 -170 -103.5 -281.5 t-265.5 -111.5zM419 654q-115 0 -184 -78t-69 -203t68.5 -202t182.5 -77t182 78t68 204q0 125 -67.5 201.5t-180.5 76.5z" horiz-adv-x="833"/>
<glyph glyph-name="Odieresis" unicode="Ö" d="M364 832v115h-103v-115h103zM573 832v115h-103v-115h103zM419 -19q-163 0 -268.5 112t-105.5 283q0 169 104.5 280t267.5 111t267 -111t104 -282q0 -170 -103.5 -281.5t-265.5 -111.5zM419 654q-115 0 -184 -78t-69 -203t68.5 -202t182.5 -77t182 78t68 204 q0 125 -67.5 201.5t-180.5 76.5z" horiz-adv-x="833"/>
<glyph glyph-name="multiply" unicode="×" d="M457 149l-49 -48l-155 155l-155 -155l-48 48l155 155l-155 155l49 48l155 -154l154 154l48 -48l-154 -154z" horiz-adv-x="507"/>
<glyph glyph-name="Oslash" unicode="Ø" d="M569 736q101 -44 160 -140t59 -222q0 -170 -103.5 -281.5t-265.5 -111.5q-63 0 -118 18l-34 -95h-53l41 113q-97 46 -153.5 141.5t-56.5 217.5q0 169 104.5 280t267.5 111q55 0 105 -14l35 95h53zM166 373q0 -86 33.5 -151t94.5 -98l190 523q-35 7 -65 7q-115 0 -184 -78 t-69 -203zM417 94q114 0 182 78t68 204q0 89 -36 155.5t-100 98.5l-191 -525q38 -11 77 -11z" horiz-adv-x="833"/>
<glyph glyph-name="Ugrave" unicode="Ù" d="M345 832l-136 149l86 65l138 -214h-88zM554 750h117v-467q0 -145 -78 -223.5t-221 -78.5q-144 0 -223 78.5t-79 223.5v467h119v-469q0 -92 49 -140t138 -48q86 0 132 43.5t46 130.5v483z" horiz-adv-x="741"/>
<glyph glyph-name="Uacute" unicode="Ú" d="M408 832h-88l138 214l86 -65zM554 750h117v-467q0 -145 -78 -223.5t-221 -78.5q-144 0 -223 78.5t-79 223.5v467h119v-469q0 -92 49 -140t138 -48q86 0 132 43.5t46 130.5v483z" horiz-adv-x="741"/>
<glyph glyph-name="Ucircumflex" unicode="Û" d="M447 832l-71 88l-70 -88h-102l141 178h63l141 -178h-102zM554 750h117v-467q0 -145 -78 -223.5t-221 -78.5q-144 0 -223 78.5t-79 223.5v467h119v-469q0 -92 49 -140t138 -48q86 0 132 43.5t46 130.5v483z" horiz-adv-x="741"/>
<glyph glyph-name="Udieresis" unicode="Ü" d="M324 832v115h-103v-115h103zM533 832v115h-103v-115h103zM554 750h117v-467q0 -145 -78 -223.5t-221 -78.5q-144 0 -223 78.5t-79 223.5v467h119v-469q0 -92 49 -140t138 -48q86 0 132 43.5t46 130.5v483z" horiz-adv-x="741"/>
<glyph glyph-name="Yacute" unicode="Ý" d="M380 832h-88l138 214l86 -65zM674 750l-270 -465v-285h-119v285l-270 465h136l195 -361l196 361h132z" horiz-adv-x="689"/>
<glyph glyph-name="Thorn" unicode="Þ" d="M383 650q109 0 175.5 -60.5t66.5 -158.5q0 -104 -71 -169.5t-184 -65.5h-171v-196h-119v762h119v-112h184zM374 306q60 0 95.5 31.5t35.5 86.5q0 53 -34 84.5t-92 31.5h-180v-234h175z" horiz-adv-x="650"/>
<glyph glyph-name="germandbls" unicode="ß" d="M401 390q92 -15 139 -65t47 -127q0 -91 -61 -144.5t-163 -53.5h-74v95h54q58 0 93.5 31t35.5 83q0 56 -44.5 85.5t-138.5 33.5v92q63 8 98 42t35 89q0 53 -30.5 82.5t-86.5 29.5q-60 0 -91.5 -34t-31.5 -96v-533h-112v533q0 107 61 168t170 61q104 0 168 -54t64 -140 q0 -65 -37.5 -113t-94.5 -65z" horiz-adv-x="622"/>
<glyph glyph-name="agrave" unicode="à" d="M274 651l-136 149l86 65l138 -214h-88zM290 557q102 0 156.5 -46.5t54.5 -136.5v-374h-109v82q-59 -94 -179 -94q-83 0 -130.5 46t-47.5 121q0 139 171 163l122 17q36 5 52.5 18.5t16.5 41.5q0 38 -29 58t-79 20q-55 0 -87 -25t-37 -70h-107q8 85 68.5 132t163.5 47z M240 84q65 0 109 40t44 107v40q-23 -8 -81 -17l-62 -9q-103 -15 -103 -86q0 -36 24 -55.5t69 -19.5z" horiz-adv-x="561"/>
<glyph glyph-name="aacute" unicode="á" d="M341 651h-91l142 222l89 -68zM290 557q102 0 156.5 -46.5t54.5 -136.5v-374h-109v82q-59 -94 -179 -94q-83 0 -130.5 46t-47.5 121q0 139 171 163l122 17q36 5 52.5 18.5t16.5 41.5q0 38 -29 58t-79 20q-55 0 -87 -25t-37 -70h-107q8 85 68.5 132t163.5 47zM240 84 q65 0 109 40t44 107v40q-23 -8 -81 -17l-62 -9q-103 -15 -103 -86q0 -36 24 -55.5t69 -19.5z" horiz-adv-x="561"/>
<glyph glyph-name="acircumflex" unicode="â" d="M360 651l-71 88l-70 -88h-102l141 178h63l141 -178h-102zM290 557q102 0 156.5 -46.5t54.5 -136.5v-374h-109v82q-59 -94 -179 -94q-83 0 -130.5 46t-47.5 121q0 139 171 163l122 17q36 5 52.5 18.5t16.5 41.5q0 38 -29 58t-79 20q-55 0 -87 -25t-37 -70h-107 q8 85 68.5 132t163.5 47zM240 84q65 0 109 40t44 107v40q-23 -8 -81 -17l-62 -9q-103 -15 -103 -86q0 -36 24 -55.5t69 -19.5z" horiz-adv-x="561"/>
<glyph glyph-name="atilde" unicode="ã" d="M467 793q-3 -65 -30 -103.5t-70 -38.5q-31 0 -74 31.5t-61 31.5q-35 0 -38 -57h-63q2 64 29.5 102t70.5 38q31 0 74.5 -32t60.5 -32q30 0 36 60h65zM290 557q102 0 156.5 -46.5t54.5 -136.5v-374h-109v82q-59 -94 -179 -94q-83 0 -130.5 46t-47.5 121q0 139 171 163 l122 17q36 5 52.5 18.5t16.5 41.5q0 38 -29 58t-79 20q-55 0 -87 -25t-37 -70h-107q8 85 68.5 132t163.5 47zM240 84q65 0 109 40t44 107v40q-23 -8 -81 -17l-62 -9q-103 -15 -103 -86q0 -36 24 -55.5t69 -19.5z" horiz-adv-x="561"/>
<glyph glyph-name="adieresis" unicode="ä" d="M243 651v115h-103v-115h103zM442 651v115h-103v-115h103zM290 557q102 0 156.5 -46.5t54.5 -136.5v-374h-109v82q-59 -94 -179 -94q-83 0 -130.5 46t-47.5 121q0 139 171 163l122 17q36 5 52.5 18.5t16.5 41.5q0 38 -29 58t-79 20q-55 0 -87 -25t-37 -70h-107 q8 85 68.5 132t163.5 47zM240 84q65 0 109 40t44 107v40q-23 -8 -81 -17l-62 -9q-103 -15 -103 -86q0 -36 24 -55.5t69 -19.5z" horiz-adv-x="561"/>
<glyph glyph-name="aring" unicode="å" d="M186 762q0 49 31 80t78 31q49 0 80.5 -31t31.5 -80t-31.5 -80t-80.5 -31q-47 0 -78 31.5t-31 79.5zM351 762q0 25 -15 41t-40 16t-39.5 -16t-14.5 -41t14.5 -41.5t39.5 -16.5t40 16.5t15 41.5zM290 557q102 0 156.5 -46.5t54.5 -136.5v-374h-109v82q-59 -94 -179 -94 q-83 0 -130.5 46t-47.5 121q0 139 171 163l122 17q36 5 52.5 18.5t16.5 41.5q0 38 -29 58t-79 20q-55 0 -87 -25t-37 -70h-107q8 85 68.5 132t163.5 47zM240 84q65 0 109 40t44 107v40q-23 -8 -81 -17l-62 -9q-103 -15 -103 -86q0 -36 24 -55.5t69 -19.5z" horiz-adv-x="561"/>
<glyph glyph-name="ae" unicode="æ" d="M900 288v-47h-399q0 -72 44.5 -115.5t116.5 -43.5q52 0 88.5 24t47.5 66h99q-16 -82 -82.5 -133t-158.5 -51q-76 0 -135 35t-92 97q-34 -68 -91.5 -100t-124.5 -32q-83 0 -130.5 46t-47.5 121q0 139 171 163l122 17q36 5 52.5 18.5t16.5 41.5q0 38 -29 58t-79 20 q-55 0 -87 -25t-37 -70h-107q8 85 68.5 132t163.5 47q136 0 188 -85q65 85 179 85q111 0 177 -72.5t66 -196.5zM503 324h289q0 63 -37 101t-100 38q-64 0 -105.5 -37.5t-46.5 -101.5zM393 231v40q-23 -8 -81 -17l-62 -9q-103 -15 -103 -86q0 -36 24 -55.5t69 -19.5 q65 0 109 40t44 107z" horiz-adv-x="935"/>
<glyph glyph-name="ccedilla" unicode="ç" d="M542 200q-10 -99 -73.5 -155t-166.5 -57v-32q49 -2 79.5 -24t30.5 -59q0 -39 -30 -65t-77 -26q-68 0 -114 40l32 49q40 -32 77 -32q22 0 35 10t13 27q0 19 -25 33.5t-73 14.5l11 66q-104 13 -165 89t-61 193q0 128 72 206.5t191 78.5q106 0 172.5 -57.5t68.5 -150.5h-110 q-5 49 -39 78t-88 29q-70 0 -111.5 -49.5t-41.5 -133.5t41 -133t111 -49q55 0 90 29.5t40 79.5h111z" horiz-adv-x="577"/>
<glyph glyph-name="egrave" unicode="è" d="M275 651l-136 149l86 65l138 -214h-88zM540 288v-47h-399q0 -72 44.5 -115.5t116.5 -43.5q52 0 88.5 24t47.5 66h99q-16 -82 -82.5 -133t-158.5 -51q-117 0 -189 78.5t-72 205.5q0 128 72.5 206.5t189.5 78.5q111 0 177 -72.5t66 -196.5zM432 324q0 63 -37 101t-100 38 q-64 0 -105.5 -37.5t-46.5 -101.5h289z" horiz-adv-x="575"/>
<glyph glyph-name="eacute" unicode="é" d="M337 651h-88l138 214l86 -65zM540 288v-47h-399q0 -72 44.5 -115.5t116.5 -43.5q52 0 88.5 24t47.5 66h99q-16 -82 -82.5 -133t-158.5 -51q-117 0 -189 78.5t-72 205.5q0 128 72.5 206.5t189.5 78.5q111 0 177 -72.5t66 -196.5zM432 324q0 63 -37 101t-100 38 q-64 0 -105.5 -37.5t-46.5 -101.5h289z" horiz-adv-x="575"/>
<glyph glyph-name="ecircumflex" unicode="ê" d="M371 651l-71 88l-70 -88h-102l141 178h63l141 -178h-102zM540 288v-47h-399q0 -72 44.5 -115.5t116.5 -43.5q52 0 88.5 24t47.5 66h99q-16 -82 -82.5 -133t-158.5 -51q-117 0 -189 78.5t-72 205.5q0 128 72.5 206.5t189.5 78.5q111 0 177 -72.5t66 -196.5zM432 324 q0 63 -37 101t-100 38q-64 0 -105.5 -37.5t-46.5 -101.5h289z" horiz-adv-x="575"/>
<glyph glyph-name="edieresis" unicode="ë" d="M257 651v115h-103v-115h103zM456 651v115h-103v-115h103zM540 288v-47h-399q0 -72 44.5 -115.5t116.5 -43.5q52 0 88.5 24t47.5 66h99q-16 -82 -82.5 -133t-158.5 -51q-117 0 -189 78.5t-72 205.5q0 128 72.5 206.5t189.5 78.5q111 0 177 -72.5t66 -196.5zM432 324 q0 63 -37 101t-100 38q-64 0 -105.5 -37.5t-46.5 -101.5h289z" horiz-adv-x="575"/>
<glyph glyph-name="igrave" unicode="ì" d="M79 651l-136 149l86 65l138 -214h-88zM70 0v547h113v-547h-113z" horiz-adv-x="253"/>
<glyph glyph-name="iacute" unicode="í" d="M173 651h-88l138 214l86 -65zM69 0v547h113v-547h-113z" horiz-adv-x="251"/>
<glyph glyph-name="icircumflex" unicode="î" d="M196 651l-71 88l-70 -88h-102l141 178h63l141 -178h-102zM69 0v547h113v-547h-113z" horiz-adv-x="251"/>
<glyph glyph-name="idieresis" unicode="ï" d="M78 651v115h-103v-115h103zM277 651v115h-103v-115h103zM69 0v547h113v-547h-113z" horiz-adv-x="252"/>
<glyph glyph-name="eth" unicode="ð" d="M494 671q91 -94 91 -299q0 -183 -77 -283.5t-214 -100.5q-114 0 -186.5 69.5t-72.5 183.5q0 109 69.5 180t176.5 71q60 0 113 -26t89 -72q-3 151 -65 214l-91 -77l-51 60l70 58q-21 6 -48 6q-52 0 -89 -27.5t-45 -80.5h-109q12 96 77 149.5t161 53.5q77 0 138 -31l89 74 v-100zM293 86q72 0 116.5 40.5t44.5 109.5t-43 111.5t-112 42.5q-70 0 -113 -43.5t-43 -114.5q0 -69 41 -107.5t109 -38.5z" horiz-adv-x="620"/>
<glyph glyph-name="ntilde" unicode="ñ" d="M489 793q-3 -65 -30 -103.5t-70 -38.5q-31 0 -74 31.5t-61 31.5q-35 0 -38 -57h-63q2 64 29.5 102t70.5 38q31 0 74.5 -32t60.5 -32q30 0 36 60h65zM356 557q92 0 141.5 -51.5t49.5 -151.5v-354h-113v342q0 53 -30 84t-83 31q-64 0 -101 -44.5t-37 -119.5v-293h-113v547 h113v-82q54 92 173 92z" horiz-adv-x="612"/>
<glyph glyph-name="ograve" unicode="ò" d="M277 651l-136 149l86 65l138 -214h-88zM299 557q120 0 192.5 -78.5t72.5 -206.5q0 -129 -72.5 -206.5t-192.5 -77.5t-192 78t-72 206t72.5 206.5t191.5 78.5zM298 454q-69 0 -109 -49.5t-40 -132.5t40.5 -132t111.5 -49q69 0 109 49t40 132t-40.5 132.5t-111.5 49.5z" horiz-adv-x="599"/>
<glyph glyph-name="oacute" unicode="ó" d="M349 651h-88l138 214l86 -65zM299 557q120 0 192.5 -78.5t72.5 -206.5q0 -129 -72.5 -206.5t-192.5 -77.5t-192 78t-72 206t72.5 206.5t191.5 78.5zM298 454q-69 0 -109 -49.5t-40 -132.5t40.5 -132t111.5 -49q69 0 109 49t40 132t-40.5 132.5t-111.5 49.5z" horiz-adv-x="599"/>
<glyph glyph-name="ocircumflex" unicode="ô" d="M370 651l-71 88l-70 -88h-102l141 178h63l141 -178h-102zM299 557q120 0 192.5 -78.5t72.5 -206.5q0 -129 -72.5 -206.5t-192.5 -77.5t-192 78t-72 206t72.5 206.5t191.5 78.5zM298 454q-69 0 -109 -49.5t-40 -132.5t40.5 -132t111.5 -49q69 0 109 49t40 132t-40.5 132.5 t-111.5 49.5z" horiz-adv-x="599"/>
<glyph glyph-name="otilde" unicode="õ" d="M475 793q-3 -65 -30 -103.5t-70 -38.5q-31 0 -74 31.5t-61 31.5q-35 0 -38 -57h-63q2 64 29.5 102t70.5 38q31 0 74.5 -32t60.5 -32q30 0 36 60h65zM299 557q120 0 192.5 -78.5t72.5 -206.5q0 -129 -72.5 -206.5t-192.5 -77.5t-192 78t-72 206t72.5 206.5t191.5 78.5z M298 454q-69 0 -109 -49.5t-40 -132.5t40.5 -132t111.5 -49q69 0 109 49t40 132t-40.5 132.5t-111.5 49.5z" horiz-adv-x="599"/>
<glyph glyph-name="odieresis" unicode="ö" d="M252 651v115h-103v-115h103zM451 651v115h-103v-115h103zM299 557q120 0 192.5 -78.5t72.5 -206.5q0 -129 -72.5 -206.5t-192.5 -77.5t-192 78t-72 206t72.5 206.5t191.5 78.5zM298 454q-69 0 -109 -49.5t-40 -132.5t40.5 -132t111.5 -49q69 0 109 49t40 132t-40.5 132.5 t-111.5 49.5z" horiz-adv-x="599"/>
<glyph glyph-name="divide" unicode="÷" d="M177 421v121h117v-121h-117zM460 245h-420v73h420v-73zM177 15v121h117v-121h-117z" horiz-adv-x="500"/>
<glyph glyph-name="oslash" unicode="ø" d="M423 529q66 -32 103.5 -99.5t37.5 -157.5q0 -129 -72.5 -206.5t-192.5 -77.5q-35 0 -70 8l-33 -92h-53l39 108q-70 32 -108.5 99.5t-38.5 160.5q0 128 72.5 206.5t191.5 78.5q44 0 78 -10l31 86h53zM149 272q0 -113 70 -158l122 335q-22 5 -43 5q-69 0 -109 -49.5 t-40 -132.5zM301 91q69 0 109 49t40 132q0 107 -64 155l-121 -332q16 -4 36 -4z" horiz-adv-x="599"/>
<glyph glyph-name="ugrave" unicode="ù" d="M264 651l-136 149l86 65l138 -214h-88zM432 547h113v-547h-110v92q-58 -98 -176 -98q-90 0 -142 56.5t-52 153.5v343h113v-333q0 -59 28 -91t81 -32q68 0 106.5 51t38.5 140v265z" horiz-adv-x="615"/>
<glyph glyph-name="uacute" unicode="ú" d="M337 651h-91l142 222l89 -68zM432 547h113v-547h-110v92q-58 -98 -176 -98q-90 0 -142 56.5t-52 153.5v343h113v-333q0 -59 28 -91t81 -32q68 0 106.5 51t38.5 140v265z" horiz-adv-x="615"/>
<glyph glyph-name="ucircumflex" unicode="û" d="M374 651l-71 88l-70 -88h-102l141 178h63l141 -178h-102zM432 547h113v-547h-110v92q-58 -98 -176 -98q-90 0 -142 56.5t-52 153.5v343h113v-333q0 -59 28 -91t81 -32q68 0 106.5 51t38.5 140v265z" horiz-adv-x="615"/>
<glyph glyph-name="udieresis" unicode="ü" d="M260 651v115h-103v-115h103zM459 651v115h-103v-115h103zM432 547h113v-547h-110v92q-58 -98 -176 -98q-90 0 -142 56.5t-52 153.5v343h113v-333q0 -59 28 -91t81 -32q68 0 106.5 51t38.5 140v265z" horiz-adv-x="615"/>
<glyph glyph-name="yacute" unicode="ý" d="M302 651h-88l138 214l86 -65zM410 547h115l-242 -635q-33 -88 -149 -88h-74v97h55q36 0 54.5 12t30.5 45l14 39l-209 530h119l144 -396z" horiz-adv-x="530"/>
<glyph glyph-name="thorn" unicode="þ" d="M371 557q106 0 170 -75.5t64 -200.5q0 -129 -68.5 -207t-178.5 -78q-121 0 -175 86v-288h-113v968h113v-308q57 103 188 103zM335 94q70 0 113 49.5t43 131.5t-42.5 131.5t-112.5 49.5q-71 0 -114 -49.5t-43 -131.5t42.5 -131.5t113.5 -49.5z" horiz-adv-x="640"/>
</font>
</defs>
</svg>
